GIL06_fast3_RRA_states
nRows=7
nColumns=47

# SIMM Motion File Header:
name GIL06_fast3_RRA_states
datacolumns 47
datarows 7
otherdata 1
range 0.79817000000000049000 0.80117000000000049000
endheader
time	pelvis_tx	pelvis_ty	pelvis_tz	pelvis_tilt	pelvis_list	pelvis_rotation	hip_flexion_r	hip_adduction_r	hip_rotation_r	knee_angle_r	ankle_angle_r	subtalar_angle_r	mtp_angle_r	hip_flexion_l	hip_adduction_l	hip_rotation_l	knee_angle_l	ankle_angle_l	subtalar_angle_l	mtp_angle_l	lumbar_extension	lumbar_bending	lumbar_rotation	pelvis_tx_u	pelvis_ty_u	pelvis_tz_u	pelvis_tilt_u	pelvis_list_u	pelvis_rotation_u	hip_flexion_r_u	hip_adduction_r_u	hip_rotation_r_u	knee_angle_r_u	ankle_angle_r_u	subtalar_angle_r_u	mtp_angle_r_u	hip_flexion_l_u	hip_adduction_l_u	hip_rotation_l_u	knee_angle_l_u	ankle_angle_l_u	subtalar_angle_l_u	mtp_angle_l_u	lumbar_extension_u	lumbar_bending_u	lumbar_rotation_u
      0.79817000000000049000	      0.94301636668825006000	      0.83306959294976057000	     -0.26612365504921220000	     -1.79142814886944880000	     -3.07057867882945070000	     -1.90564924039161790000	      5.19205660549976140000	      6.90958083578970950000	      3.29154618634776150000	    -11.32780854500201800000	      4.47129560720859760000	      0.00000000000002791165	      0.00000000000008162517	     27.60735484931689900000	     -6.34687489348432980000	     -1.06638033684512230000	    -62.17188005887029300000	      2.88880683226801070000	     -0.00000000000012565706	      0.00000000000028385064	      5.29869849590554320000	     -0.77682953598818716000	     13.41075695479687700000	      1.20248433267774920000	     -0.01568958653427082000	     -0.04277814906178948500	      3.86103100129113890000	     33.64843429415785200000	    -12.31315798422281700000	   -139.34117836801400000000	    -27.51804921655530800000	    -39.41959073362442500000	     70.26100837742220100000	     40.64771273396954900000	      0.00000000000005984172	      0.00000000000043235773	    107.25647084600894000000	     69.60132386972819100000	     36.26455822172831500000	    241.71646174622626000000	    131.31868562188041000000	     -0.00000000000037487688	      0.00000000000086425081	     -7.06075691625503410000	    -42.36330964021883700000	     15.27920267678839900000
      0.79867000000000055000	      0.94361756561838361000	      0.83306141218256435000	     -0.26614502194137385000	     -1.78955257813106570000	     -3.05378133659383180000	     -1.91189217943894010000	      5.12249142772846340000	      6.89582949591447210000	      3.27179493450075000000	    -11.29274175644394000000	      4.49164924415695750000	      0.00000000000002794364	      0.00000000000008184213	     27.66084633619552900000	     -6.31213611194450940000	     -1.04822612595816220000	    -62.05053912628118000000	      2.95411979825911430000	     -0.00000000000012584434	      0.00000000000028428235	      5.29522509416799720000	     -0.79795727264303506000	     13.41845860882977300000	      1.20231081949990190000	     -0.01703466310846110700	     -0.04269017906171254700	      3.64040313238446570000	     33.54106981804078200000	    -12.65874318760511800000	   -138.91787579456960000000	    -27.48787166313479300000	    -39.58482695942434800000	     70.00456565113516700000	     40.76777983654717000000	      0.00000000000005067240	      0.00000000000048861668	    106.71026720558096000000	     69.35388641328987100000	     36.35302546049765500000	    243.64691508795792000000	    129.93301292935536000000	     -0.00000000000037345862	      0.00000000000086286034	     -6.83196093768089430000	    -42.14757688764058200000	     15.52800828630459800000
      0.79917000000000049000	      0.94421867697264839000	      0.83305255713236559000	     -0.26616634599509176000	     -1.78778858014800290000	     -3.03703746551819310000	     -1.91830812003774430000	      5.05314036142083540000	      6.88209239728344000000	      3.25196195639954940000	    -11.25780554309284300000	      4.51206421025046290000	      0.00000000000002797090	      0.00000000000008208309	     27.71406588693158900000	     -6.27752091142184730000	     -1.03002658167190760000	    -61.92823351111449200000	      3.01873973893949500000	     -0.00000000000012603118	      0.00000000000028471377	      5.29186741404174570000	     -0.81897706293153394000	     13.42628554259741800000	      1.20213409594680720000	     -0.01838666380120708100	     -0.04260681030189133300	      3.41476907296769340000	     33.43456644888877300000	    -13.00514653886824100000	   -138.48478349880861000000	    -27.46109523068901800000	    -39.74648148295765500000	     69.73874090241716300000	     40.89278518678259600000	      0.00000000000006346378	      0.00000000000047298700	    106.16868680132589000000	     69.10702324616247000000	     36.44587095715307600000	    245.57516195229772000000	    128.54670436351660000000	     -0.00000000000037410645	      0.00000000000086048060	     -6.59789080762614160000	    -41.93154477523670900000	     15.78029048746057200000
      0.79967000000000055000	      0.94481969921141495000	      0.83304302438842492000	     -0.26618762952589547000	     -1.78613863223821690000	     -3.02034662334960440000	     -1.92489745254057270000	      4.98400825741001800000	      6.86836783604150370000	      3.23204905752360230000	    -11.22300457331445000000	      4.53254283264073890000	      0.00000000000002800225	      0.00000000000008231968	     27.76701577955765300000	     -6.24302898799389720000	     -1.01177953186003470000	    -61.80496434949306900000	      3.08266644732267860000	     -0.00000000000012621826	      0.00000000000028514435	      5.28862807575531860000	     -0.83988877147145102000	     13.43423946201864900000	      1.20195435510977160000	     -0.01974544490773898200	     -0.04252808695012926000	      3.18419619699773460000	     33.32894400779067500000	    -13.35230885306864600000	   -138.04201262762410000000	    -27.43770669923251400000	    -39.90450904006537100000	     69.46356981849383800000	     41.02260941097853200000	      0.00000000000006535558	      0.00000000000045938585	    105.63164644866843000000	     68.86076462404776100000	     36.54305517744716500000	    247.50109543597551000000	    127.16006571617223000000	     -0.00000000000037413631	      0.00000000000086114667	     -6.35858658272936680000	    -41.71523726736951700000	     16.03594860046440800000
      0.80017000000000049000	      0.94542063085744754000	      0.83303281058164191000	     -0.26620887486245304000	     -1.78460519529460070000	     -3.00370837187374250000	     -1.93166054621503160000	      4.91509994231173500000	      6.85465412888673950000	      3.21205806105105030000	    -11.18834352399223400000	      4.55308760499438580000	      0.00000000000002803195	      0.00000000000008255208	     27.81969827521134400000	     -6.20866004203188380000	     -0.99348281048692189000	    -61.68073281897868300000	      3.14589979922565410000	     -0.00000000000012640525	      0.00000000000028557521	      5.28550969246240760000	     -0.86069225762448709000	     13.44232203746950000000	      1.20177179264811820000	     -0.02111085930900202800	     -0.04245404638580101100	      2.94875554455453460000	     33.22421954481350800000	    -13.70017450891380900000	   -137.58968124088449000000	    -27.41768841655624200000	    -40.05885477461894300000	     69.17909487940237100000	     41.15714523982939700000	      0.00000000000005975431	      0.00000000000046258563	    105.09905785728670000000	     68.61513500441654400000	     36.64453540772566200000	    249.42460663557870000000	    125.77339617213295000000	     -0.00000000000037346795	      0.00000000000086193678	     -6.11409263951427560000	    -41.49867463448148900000	     16.29488384282273500000
      0.80067000000000055000	      0.94602147056632413000	      0.83302191244738111000	     -0.26623008435954432000	     -1.78319067629061820000	     -2.98712225116622680000	     -1.93859773464483490000	      4.84642015006040780000	      6.84094958870944140000	      3.19199082355506740000	    -11.15382702194383700000	      4.57370074384795440000	      0.00000000000002806278	      0.00000000000008277766	     27.87211556498836600000	     -6.17441374379213670000	     -0.97513428736088836000	    -61.55554016469753300000	      3.20843988791501640000	     -0.00000000000012659216	      0.00000000000028600630	      5.28251484080060510000	     -0.88138740712937313000	     13.45053487518804000000	      1.20158660396808830000	     -0.02248276250712150400	     -0.04238472948542381500	      2.70851758612989760000	     33.12041108789903600000	    -14.04868532213128100000	   -137.12790704094363000000	    -27.40102368940824100000	    -40.20947563440229500000	     68.88535920357352900000	     41.29627648787796100000	      0.00000000000006752454	      0.00000000000041346160	    104.57083538144397000000	     68.37016090989486400000	     36.75027004550767600000	    251.34558440644778000000	    124.38699486937958000000	     -0.00000000000037429188	      0.00000000000086240034	     -5.86445287449488980000	    -41.28187845138502600000	     16.55699474176954000000
      0.80117000000000049000	      0.94662221705694849000	      0.83301032676204589000	     -0.26625126038508784000	     -1.78189746505239730000	     -2.97058780562508500000	     -1.94570933006767730000	      4.77797358857933040000	      6.82725254972690990000	      3.17184921460472950000	    -11.11945970018629600000	      4.59438462960128910000	      0.00000000000002809129	      0.00000000000008299273	     27.92426982319815200000	     -6.14028976846821810000	     -0.95673183871446332000	    -61.42938767517232200000	      3.27028688663714420000	     -0.00000000000012677935	      0.00000000000028643760	      5.27964608950059850000	     -0.90197410002495448000	     13.45887954524166800000	      1.20139898872586870000	     -0.02386100663399808000	     -0.04232017179355155500	      2.46355585773642270000	     33.01753376184007700000	    -14.39778671780608500000	   -136.65681360213199000000	    -27.38769185988923000000	    -40.35632161092051700000	     68.58241159704347500000	     41.43989589223510700000	      0.00000000000005701558	      0.00000000000041505922	    104.04688930606453000000	     68.12586315525075500000	     36.86021499235327800000	    253.26391609673379000000	    123.00115051135553000000	     -0.00000000000037509893	      0.00000000000086443679	     -5.60971394400622620000	    -41.06486629549488800000	     16.82218332021299600000
